# File created by Blade
# Date/Time:  Thu Sep 25 19:26:26 2014
# Frame Rate: 120.000 fps
#------------------------------------------------------
:FULLY-SPECIFIED
:DEGREES
1272
root 6.877665 32.513508 -8.134122 7.567850 -0.608562 -0.636204
Spine -2.960128 5.615467 -1.420454
Head -21.148401 -4.063867 15.560966
LeftShoulder -8.627170 15.319730 32.081675
LeftArm 20.341564 -20.340700 -31.778531
LeftForeArm 8.333379 -0.000000 13.880874
LeftHand -26.060372 0.000000 -4.477709
LeftHandThumb1 -26.253704 0.000000 33.147579
RightShoulder -19.088937 12.958139 -35.197555
RightArm -8.621097 9.410726 40.724876
RightForeArm -27.965371 -0.000000 17.679321
RightHand -13.750002 0.000000 -14.524633
RightHandThumb1 -24.326973 -0.000000 -32.862282
LeftUpLeg -14.542179 -1.489376 2.002310
LeftLeg 23.827633 -0.000000 -0.000000
LeftFoot -24.482317 11.769478 -15.312825
LeftToeBase 10.326197 -0.000000 -0.000000
RightUpLeg -15.024111 -16.551799 -19.354395
RightLeg 15.587590 -0.000000 -0.000000
RightFoot 13.565295 -9.647966 -0.560359
RightToeBase 1.356025 -0.000000 -0.000000
1273
root 6.912167 32.587075 -8.094802 7.380455 -0.777516 -1.042090
Spine -3.022639 5.591932 -0.824264
Head -20.853595 -4.101787 15.529984
LeftShoulder -8.670668 15.421627 32.124459
LeftArm 20.290905 -20.488745 -31.630953
LeftForeArm 8.379007 -0.000000 13.875347
LeftHand -26.186662 0.000000 -4.432195
LeftHandThumb1 -26.253704 0.000000 33.147579
RightShoulder -19.158298 12.989681 -35.449111
RightArm -8.518427 9.581697 40.405945
RightForeArm -28.316070 -0.000000 17.721515
RightHand -13.743241 0.000000 -14.141079
RightHandThumb1 -24.326973 -0.000000 -32.862282
LeftUpLeg -13.831689 -1.424642 2.310719
LeftLeg 22.910784 -0.000000 -0.000000
LeftFoot -24.067824 12.047557 -15.246455
LeftToeBase 10.249422 -0.000000 -0.000000
RightUpLeg -15.009902 -16.066866 -18.374185
RightLeg 16.322710 -0.000000 -0.000000
RightFoot 11.652313 -9.323418 0.480173
RightToeBase 1.180804 -0.000000 -0.000000
1274
root 6.942657 32.659708 -8.059007 7.275395 -0.917143 -1.432776
Spine -3.160653 5.508679 -0.265159
Head -20.603666 -4.052133 15.539526
LeftShoulder -8.799427 15.509170 32.147064
LeftArm 20.281734 -20.558753 -31.452784
LeftForeArm 8.376950 -0.000000 13.834187
LeftHand -26.245645 -0.000000 -4.389525
LeftHandThumb1 -26.253704 0.000000 33.147579
RightShoulder -19.269380 13.065379 -35.635129
RightArm -8.375089 9.530419 40.050467
RightForeArm -28.322057 -0.000000 17.732890
RightHand -13.678941 -0.000000 -14.411190
RightHandThumb1 -24.326973 -0.000000 -32.862282
LeftUpLeg -13.235422 -1.356686 2.615318
LeftLeg 22.045576 -0.000000 -0.000000
LeftFoot -23.644403 12.326690 -15.147519
LeftToeBase 10.247318 -0.000000 -0.000000
RightUpLeg -15.047352 -15.667248 -17.347843
RightLeg 17.014620 -0.000000 -0.000000
RightFoot 9.812820 -8.861542 1.489226
RightToeBase 0.889220 -0.000000 -0.000000
1275
root 6.962365 32.729620 -8.021690 7.143355 -1.041734 -1.857151
Spine -3.278810 5.505750 0.310277
Head -20.293114 -4.157387 15.569310
LeftShoulder -8.828973 15.580598 32.230507
LeftArm 20.277899 -20.598380 -31.329063
LeftForeArm 8.289430 0.000000 13.812942
LeftHand -26.225840 -0.000000 -4.194379
LeftHandThumb1 -26.253704 0.000000 33.147579
RightShoulder -19.420781 13.065261 -35.831665
RightArm -8.187828 9.677918 39.744386
RightForeArm -28.642999 -0.000000 17.685291
RightHand -13.725707 -0.000000 -14.242391
RightHandThumb1 -24.326973 -0.000000 -32.862282
LeftUpLeg -12.590190 -1.268116 2.970726
LeftLeg 21.149651 -0.000000 -0.000000
LeftFoot -23.155528 12.540737 -14.954705
LeftToeBase 10.133119 -0.000000 -0.000000
RightUpLeg -15.063485 -15.286116 -16.254487
RightLeg 17.753833 -0.000000 -0.000000
RightFoot 7.914435 -8.309272 2.644789
RightToeBase 0.620735 -0.000000 -0.000000
1276
root 6.983294 32.798971 -7.988980 7.076170 -1.133466 -2.255035
Spine -3.484618 5.441907 0.858827
Head -19.928247 -4.183063 15.598531
LeftShoulder -8.874929 15.690824 32.237072
LeftArm 20.295835 -20.787025 -31.197881
LeftForeArm 8.427573 -0.000000 13.815165
LeftHand -26.512711 -0.000000 -4.310163
LeftHandThumb1 -26.253704 0.000000 33.147579
RightShoulder -19.531567 13.130027 -35.986540
RightArm -7.961451 9.739646 39.344613
RightForeArm -28.856944 -0.000000 17.482851
RightHand -13.458716 -0.000000 -13.914924
RightHandThumb1 -24.326973 -0.000000 -32.862282
LeftUpLeg -12.041489 -1.253287 3.313818
LeftLeg 20.283576 -0.000000 -0.000000
LeftFoot -22.798037 12.793394 -15.020168
LeftToeBase 10.287828 -0.000000 -0.000000
RightUpLeg -15.094566 -14.871319 -15.167391
RightLeg 18.429757 -0.000000 -0.000000
RightFoot 6.190197 -7.700947 3.648114
RightToeBase 0.060889 -0.000000 -0.000000
1277
root 6.991967 32.864153 -7.954925 6.993870 -1.230755 -2.686282
Spine -3.663011 5.377233 1.405860
Head -19.587153 -4.231745 15.680370
LeftShoulder -8.917020 15.697268 32.314855
LeftArm 20.263591 -20.755500 -31.037199
LeftForeArm 8.365179 -0.000000 13.702649
LeftHand -26.451826 -0.000000 -4.233569
LeftHandThumb1 -26.253704 0.000000 33.147579
RightShoulder -19.687078 13.205002 -36.185679
RightArm -7.693617 9.415484 39.103373
RightForeArm -28.848655 -0.000000 17.343279
RightHand -13.794637 -0.000000 -14.041447
RightHandThumb1 -24.326973 -0.000000 -32.862282
LeftUpLeg -11.483583 -1.083898 3.704870
LeftLeg 19.447657 -0.000000 -0.000000
LeftFoot -22.356266 12.916399 -14.906106
LeftToeBase 10.327578 -0.000000 -0.000000
RightUpLeg -15.070832 -14.484177 -14.003117
RightLeg 18.991119 -0.000000 -0.000000
RightFoot 4.595468 -7.143716 4.570210
RightToeBase -0.778310 -0.000000 0.000000
1278
root 7.003456 32.925659 -7.924382 6.922470 -1.334383 -3.055563
Spine -3.844764 5.345854 1.859648
Head -19.223711 -4.264070 15.811625
LeftShoulder -8.905061 15.589079 32.390738
LeftArm 20.150653 -20.865418 -30.877293
LeftForeArm 8.527620 -0.000000 13.632884
LeftHand -26.519413 -0.000000 -4.467638
LeftHandThumb1 -26.253704 0.000000 33.147579
RightShoulder -19.811996 13.254726 -36.337081
RightArm -7.490449 9.569148 38.788594
RightForeArm -29.269468 -0.000000 17.185340
RightHand -13.655590 -0.000000 -13.841203
RightHandThumb1 -24.326973 -0.000000 -32.862282
LeftUpLeg -10.942737 -0.969824 4.038308
LeftLeg 18.610810 -0.000000 -0.000000
LeftFoot -21.916881 12.989693 -14.992643
LeftToeBase 10.219923 -0.000000 -0.000000
RightUpLeg -15.048082 -14.080586 -12.887064
RightLeg 19.512094 -0.000000 -0.000000
RightFoot 3.211560 -6.569900 5.269200
RightToeBase -1.899812 -0.000000 0.000000
1279
root 7.010541 32.983823 -7.889123 6.849989 -1.380378 -3.382875
Spine -4.044936 5.277273 2.253440
Head -18.841662 -4.356182 15.962065
LeftShoulder -8.878230 15.519456 32.475552
LeftArm 20.056283 -20.967380 -30.724342
LeftForeArm 8.675826 -0.000000 13.589343
LeftHand -26.517494 0.000000 -4.602416
LeftHandThumb1 -26.253704 0.000000 33.147579
RightShoulder -19.926745 13.327359 -36.461426
RightArm -7.357698 9.511183 38.452965
RightForeArm -29.516190 -0.000000 17.121911
RightHand -13.452674 -0.000000 -13.630397
RightHandThumb1 -24.326973 -0.000000 -32.862282
LeftUpLeg -10.390198 -0.930377 4.352587
LeftLeg 17.759152 -0.000000 -0.000000
LeftFoot -21.486368 13.063840 -15.086302
LeftToeBase 10.221777 -0.000000 -0.000000
RightUpLeg -14.960315 -13.805240 -11.787464
RightLeg 19.954337 -0.000000 -0.000000
RightFoot 1.918077 -5.917364 5.801095
RightToeBase -2.879609 -0.000000 0.000000
1280
root 7.014926 33.035889 -7.854998 6.777678 -1.427388 -3.698930
Spine -4.248681 5.174293 2.630285
Head -18.423842 -4.397924 16.116926
LeftShoulder -8.910639 15.510095 32.559578
LeftArm 20.087681 -21.205606 -30.670628
LeftForeArm 8.802880 -0.000000 13.492087
LeftHand -26.596282 -0.000000 -4.692651
LeftHandThumb1 -26.253704 0.000000 33.147579
RightShoulder -20.054021 13.354015 -36.603149
RightArm -7.105787 9.464836 38.228551
RightForeArm -29.702566 -0.000000 17.067594
RightHand -13.840040 0.000000 -13.700591
RightHandThumb1 -24.326973 -0.000000 -32.862282
LeftUpLeg -9.865686 -0.765515 4.657976
LeftLeg 16.966891 -0.000000 -0.000000
LeftFoot -20.989477 13.005183 -15.069659
LeftToeBase 10.011986 -0.000000 -0.000000
RightUpLeg -14.852816 -13.481650 -10.716140
RightLeg 20.336017 -0.000000 -0.000000
RightFoot 0.904106 -5.497641 6.058457
RightToeBase -3.939412 -0.000000 0.000000
1281
root 7.014250 33.083740 -7.823973 6.732743 -1.468235 -3.978479
Spine -4.482819 5.086793 2.928085
Head -18.028770 -4.471931 16.301783
LeftShoulder -8.881326 15.411236 32.664282
LeftArm 19.996839 -21.362939 -30.526679
LeftForeArm 8.947317 0.000000 13.410358
LeftHand -26.514790 -0.000000 -4.791509
LeftHandThumb1 -26.253704 0.000000 33.147579
RightShoulder -20.149610 13.475851 -36.678570
RightArm -6.946405 9.374536 37.862453
RightForeArm -29.912979 0.000000 16.967094
RightHand -13.423601 -0.000000 -13.175934
RightHandThumb1 -24.326973 -0.000000 -32.862282
LeftUpLeg -9.410717 -0.492437 4.946624
LeftLeg 16.238103 -0.000000 -0.000000
LeftFoot -20.637115 12.726871 -15.389003
LeftToeBase 10.120209 -0.000000 -0.000000
RightUpLeg -14.738036 -13.107303 -9.691865
RightLeg 20.639064 -0.000000 -0.000000
RightFoot -0.040235 -5.155442 6.517286
RightToeBase -4.741812 -0.000000 0.000000
1282
root 7.016878 33.125664 -7.796782 6.710988 -1.496980 -4.198208
Spine -4.733735 4.963990 3.149283
Head -17.592313 -4.479337 16.518047
LeftShoulder -8.879237 15.315712 32.781672
LeftArm 19.925634 -21.431538 -30.366491
LeftForeArm 9.048448 -0.000000 13.290551
LeftHand -26.441444 -0.000000 -4.906820
LeftHandThumb1 -26.253704 0.000000 33.147579
RightShoulder -20.210687 13.534504 -36.787567
RightArm -6.778319 9.235177 37.629177
RightForeArm -30.013453 -0.000000 16.907933
RightHand -13.593373 -0.000000 -13.326586
RightHandThumb1 -24.326973 -0.000000 -32.862282
LeftUpLeg -9.006317 -0.192872 5.170339
LeftLeg 15.548591 -0.000000 -0.000000
LeftFoot -20.183178 12.406113 -15.605203
LeftToeBase 10.047424 -0.000000 -0.000000
RightUpLeg -14.603431 -12.659626 -8.754088
RightLeg 20.821283 -0.000000 -0.000000
RightFoot -1.016795 -5.056699 6.817792
RightToeBase -4.624934 -0.000000 0.000000
